<svg width="29" height="28" viewBox="0 0 29 28" fill="none" xmlns="http://www.w3.org/2000/svg">
<path d="M9.43857 20.6696H4.66192C3.18797 20.6696 1.99414 19.4757 1.99414 18.0018V4.66289C1.99414 3.18895 3.18797 1.99512 4.66192 1.99512H18.0008C19.4748 1.99512 20.6686 3.18895 20.6686 4.66289V8.66456" stroke="#F2994A" stroke-width="2" stroke-linecap="round" stroke-linejoin="round"/>
<path fill-rule="evenodd" clip-rule="evenodd" d="M18.8304 25.5757L26.9071 17.499C27.4806 16.9254 27.4806 15.997 26.9071 15.4248L24.5794 13.0972C24.0059 12.5236 23.0775 12.5236 22.5052 13.0972L14.4285 21.1739C14.1524 21.45 13.999 21.8221 13.999 22.2103V26.0052H17.7939C18.1821 26.0052 18.5543 25.8518 18.8304 25.5757Z" stroke="#F2994A" stroke-width="2" stroke-linecap="round" stroke-linejoin="round"/>
<path d="M13.9991 10.1104L10.6644 13.4451L8.66357 11.4442" stroke="#F2994A" stroke-width="2" stroke-linecap="round" stroke-linejoin="round"/>
</svg>
