<svg width="20" height="16" viewBox="0 0 20 16" fill="none" xmlns="http://www.w3.org/2000/svg">
<path fill-rule="evenodd" clip-rule="evenodd" d="M1.11775 8.467C0.96075 8.176 0.96075 7.823 1.11775 7.532C3.00975 4.033 6.50475 1 9.99975 1C13.4948 1 16.9898 4.033 18.8818 7.533C19.0388 7.824 19.0388 8.177 18.8818 8.468C16.9898 11.967 13.4948 15 9.99975 15C6.50475 15 3.00975 11.967 1.11775 8.467Z" stroke="#9CA4B3" stroke-width="1.5" stroke-linecap="round" stroke-linejoin="round"/>
<path d="M12.1208 5.87868C13.2924 7.05025 13.2924 8.94975 12.1208 10.1213C10.9493 11.2929 9.04976 11.2929 7.87819 10.1213C6.70662 8.94975 6.70662 7.05025 7.87819 5.87868C9.04976 4.70711 10.9493 4.70711 12.1208 5.87868" stroke="#9CA4B3" stroke-width="1.5" stroke-linecap="round" stroke-linejoin="round"/>
</svg>
