<svg width="52" height="52" viewBox="0 0 52 52" fill="none" xmlns="http://www.w3.org/2000/svg">
<path fill-rule="evenodd" clip-rule="evenodd" d="M26 2V2C39.256 2 50 12.744 50 26V26C50 39.256 39.256 50 26 50V50C12.744 50 2 39.256 2 26V26C2 12.744 12.744 2 26 2Z" stroke="#F2994A" stroke-width="4" stroke-linecap="round" stroke-linejoin="round"/>
<path d="M26.0003 27.3333V14" stroke="#F2994A" stroke-width="4" stroke-linecap="round" stroke-linejoin="round"/>
<path d="M25.9977 36.6667C25.6297 36.6667 25.331 36.9653 25.3337 37.3333C25.3337 37.7013 25.6323 38 26.0003 38C26.3683 38 26.667 37.7013 26.667 37.3333C26.667 36.9653 26.3683 36.6667 25.9977 36.6667" stroke="#F2994A" stroke-width="4" stroke-linecap="round" stroke-linejoin="round"/>
</svg>
